<svg width="200" height="80" viewBox="0 0 200 80" fill="none" xmlns="http://www.w3.org/2000/svg">
<rect width="200" height="80" rx="12" fill="white"/>
<g clip-path="url(#clip0_3524_15101)">
<path d="M40.4496 63.9943V66.0687H44.4068V67.3486H40.4496V70.901H39V62.704H44.5189V63.9943H40.4496ZM46.1165 70.9015V62.7045H51.7563V63.9948H47.5395V66.0692H51.6323V67.3491H47.5395V69.5992H51.7563V70.9015H46.1165ZM56.4741 71C54.497 71 53.1819 70.5084 53.1819 68.6154H54.6304C54.6304 69.4381 55.0235 69.6977 56.4996 69.6977C58.0847 69.6977 58.3432 69.3046 58.3432 68.4085C58.3432 67.6082 58.0357 67.4982 57.4201 67.4471C55.6161 67.3136 53.1819 67.8157 53.1819 65.1115C53.1819 63.2045 54.2885 62.6201 56.4501 62.6201C58.4292 62.6201 59.7068 63.1211 59.7068 65.0015H58.2828C58.2828 64.0324 57.6677 63.9213 56.4287 63.9213C54.7915 63.9213 54.631 64.2299 54.631 65.0849C54.631 65.8518 54.975 65.9472 55.5551 65.9962C57.3602 66.1448 59.8043 65.6172 59.7912 68.3443C59.7792 70.1893 58.6961 71 56.4741 71ZM64.424 63.9943V70.901H62.976V63.9943H60.4798V62.704H66.9192V63.9943H64.424ZM68.0753 70.9015V62.7045H69.5249V70.9015H68.0753ZM74.9828 70.9015H73.5546L70.4965 62.7045H72.043L74.2948 69.0664L76.5418 62.7045H78.067L74.9828 70.9015ZM83.7527 70.9015L82.9911 68.812H79.7964L79.0469 70.9015H77.5363L80.7076 62.7045H82.1931L85.3378 70.9015H83.7527ZM81.406 64.3165L80.2515 67.5566H82.546L81.406 64.3165ZM86.3708 70.9015V62.7045H87.8194V69.5992H91.8877V70.9015H86.3708ZM101.705 69.7952C101.117 70.6669 100.231 70.901 98.7076 70.901H95.6604V62.704H98.6966C100.22 62.704 101.104 62.9495 101.695 63.8212C102.126 64.4619 102.235 65.2001 102.235 66.8079C102.234 68.4199 102.138 69.1571 101.705 69.7952ZM98.6231 63.9943H97.087V69.5987H98.6356C100.281 69.5987 100.784 69.5121 100.784 66.8074C100.783 64.1043 100.268 63.9943 98.6231 63.9943ZM103.957 70.9015V62.7045H109.596V63.9948H105.38V66.0692H109.472V67.3491H105.38V69.5992H109.596V70.9015H103.957ZM118.996 65.0015C118.996 64.1768 118.652 63.9333 117.24 63.9333C115.594 63.9333 115.336 64.4619 115.336 66.8079C115.336 69.1571 115.583 69.6722 117.228 69.6722C118.639 69.6722 118.983 69.4381 118.983 68.6154H120.41C120.41 70.4698 119.206 71 117.338 71C113.908 71 113.885 69.1446 113.885 66.7939C113.885 64.4499 113.921 62.6201 117.349 62.6201C119.215 62.6201 120.423 63.1466 120.423 65.0015H118.996ZM127.255 70.9015L126.492 68.812H123.298L122.546 70.9015H121.036L124.206 62.7045H125.692L128.839 70.9015H127.255ZM124.905 64.3165L123.752 67.5566H126.05L124.905 64.3165ZM134.625 70.9015L131.224 65.013V70.9015H129.873V62.7045H131.347L134.764 68.543V62.7045H136.115V70.9015H134.625ZM143.351 70.9015L139.949 65.013V70.9015H138.597V62.7045H140.071L143.489 68.543V62.7045H144.838V70.9015H143.351ZM147.322 70.9015V62.7045H152.961V63.9948H148.748V66.0692H152.839V67.3491H148.748V69.5992H152.961V70.9015H147.322ZM157.682 71C155.703 71 154.388 70.5084 154.388 68.6154H155.837C155.837 69.4381 156.232 69.6977 157.706 69.6977C159.29 69.6977 159.548 69.3046 159.548 68.4085C159.548 67.6082 159.241 67.4982 158.625 67.4471C156.821 67.3136 154.388 67.8157 154.388 65.1115C154.388 63.2045 155.494 62.6201 157.656 62.6201C159.637 62.6201 160.912 63.1211 160.912 65.0015H159.488C159.488 64.0324 158.874 63.9213 157.632 63.9213C155.997 63.9213 155.837 64.2299 155.837 65.0849C155.837 65.8518 156.181 65.9472 156.759 65.9962C158.565 66.1448 161.011 65.6172 161 68.3443C160.987 70.1893 159.907 71 157.682 71Z" fill="#6C6F93"/>
<path d="M100.002 10C76.9067 10 58.3531 20.2761 58.3531 32.7251C58.3531 45.173 76.7222 55.4491 100.002 55.4491C123.146 55.4491 141.646 45.173 141.646 32.7251C141.646 20.2761 123.054 10 100.002 10ZM99.9585 54.2667C78.7128 54.2667 60.5304 44.4264 60.5304 32.7125C60.5304 21.0002 79.1293 10.9473 99.9585 10.9473C121.156 10.9473 139.362 21.0002 139.362 32.7125C139.363 44.4264 121.064 54.2667 99.9585 54.2667Z" fill="#6C6F93"/>
<path d="M131.403 29.8953C130.122 30.1564 128.932 30.5657 127.711 30.9296C126.926 31.1647 126.128 31.3805 125.284 31.5244L124.938 31.5197L125.09 31.2919C125.207 31.1699 125.326 31.0484 125.448 30.9296C126.667 29.7331 128.049 28.7014 129.324 27.5419C129.723 27.0748 130.601 26.7182 130.317 25.869C130.057 25.7334 129.354 26.0165 129.018 26.1661C126.539 27.4465 124.257 28.8849 122.161 30.8853C122.1 30.9437 122.039 31.0021 121.977 31.061C120.788 31.9603 120.569 34.0414 118.788 33.921C117.658 33.8167 117.495 33.8277 117.061 33.6744C118.878 32.272 122.373 27.6342 122.685 26.5259C122.685 26.5259 122.998 25.5223 122.565 25.5562C120.9 26.163 119.328 27.5732 118.03 28.716C118.151 28.1529 119.064 27.0774 118.619 26.4299C115.736 27.0373 111.669 30.8967 111.649 30.9098C110.877 31.4222 110.591 33.0707 109.389 32.8257C108.637 32.7219 107.73 32.7126 107.287 32.4581C108.061 31.9973 108.801 31.4817 109.519 30.9296C111.184 29.6507 112.731 28.1806 114.307 26.7652C114.397 26.5587 114.917 26.3528 114.621 26.04C114.119 25.638 113.53 26.2313 112.983 26.3272C110.486 27.422 108.799 28.8953 107.151 30.9296C106.843 31.3096 106.383 31.8002 106.109 32.2381C104.932 32.0995 104.304 32.162 103.728 31.7893C104.079 31.4984 104.436 31.2137 104.794 30.9301C106.715 29.4078 108.675 27.9069 110.141 25.649C109.993 24.8826 109.223 25.4967 108.852 25.6432C106.23 26.9377 104.075 28.5346 102.425 31.0636C102.322 31.2194 102.224 31.3795 102.129 31.5458C100.974 31.515 99.9768 31.2893 98.9797 31.061C98.9583 31.0557 98.9374 31.0511 98.9161 31.0469L98.9249 30.94C101.438 29.6549 103.678 27.4481 105.411 24.8404C105.411 24.8404 106.849 22.3166 103.694 24.403C101.339 25.9169 99.1944 27.9157 97.6911 30.7586C97.6911 30.7586 96.1076 30.8185 96.1076 30.6455C97.6328 28.7728 99.4019 26.3564 100.298 23.8905C100.383 23.5063 100.618 22.7003 100.052 22.6148C97.932 23.5047 96.5309 25.9983 95.3946 28.3359C95.0474 29.022 94.8582 29.8885 94.5502 30.5422C93.1308 30.4724 92.1509 30.5965 90.7894 30.1903C92.4959 28.6915 94.3609 27.457 95.9153 25.6573C96.1785 25.1678 97.9257 23.9703 97.8819 22.4255C97.3377 22.0914 96.7904 22.4855 96.4584 22.7305L91.6693 26.5478L91.418 26.5608C92.1816 25.1949 93.848 23.1956 94.5324 21.7838C94.7623 21.3104 95.0474 20.8803 95.026 20.3042L94.6033 20.1671C91.1407 21.6555 88.1571 25.0505 86.9859 29.4276C86.6992 29.8327 86.5601 30.609 85.9705 30.3775C85.8965 29.1888 85.5264 28.0815 85.1194 27.006C83.6349 23.9014 81.5045 21.6368 78.7811 20.0003C78.337 19.7469 78.0805 20.2266 78.227 20.5972C78.6091 22.7811 79.9585 24.1533 80.8879 25.8116C81.993 27.5211 83.4926 29.0669 84.7555 30.6105C84.3245 30.7581 74.4761 33.103 72.7253 34.5216C71.8058 35.0278 70.3349 36.2039 70.3578 38.7799C70.435 39.5389 70.9656 40.2855 71.639 40.5107C72.276 40.6025 72.7253 40.6582 73.1444 40.3715C74.9593 38.0583 77.0636 35.9417 79.4086 34.5341C81.0177 33.6916 82.1994 32.8658 84.0472 32.6333C84.8087 33.3439 85.3023 34.2792 86.3422 35.1404C88.3912 37.0058 90.1895 38.2726 93.0151 38.735L93.2966 38.6412L93.1934 38.3816C91.7 36.2076 89.4149 34.836 87.0782 33.7C86.6779 33.3976 85.7094 32.8862 85.6557 32.272C87.0959 31.7887 89.0125 31.6496 90.7435 32.0651C92.8103 35.6565 95.0896 39.5978 98.4037 41.8589C98.6508 41.9162 98.8233 41.5727 98.6992 41.348C96.4016 35.7525 94.9333 35.2478 92.5783 32.6771C92.4516 32.4868 92.2755 32.0406 92.6111 31.892L94.8113 31.9264C95.5191 32.0244 96.4881 31.8226 96.6607 32.1339C96.767 35.8343 99.1491 38.6626 100.587 41.4773C100.587 41.4773 101.049 41.7431 101.024 41.2599L101.039 41.2286C100.451 34.7124 98.0101 33.212 97.6411 32.1047C98.0169 32.0786 98.4292 32.1021 98.7368 32.2715C100.286 35.424 102.389 37.8039 105.158 39.589C105.219 39.6281 105.564 39.6708 105.34 39.1683C104.535 36.461 102.047 35.0737 100.433 33.0332L100.151 32.5061L100.477 32.4628C101.168 32.6005 102.103 32.7563 102.611 33.0869C103.531 34.8526 104.773 36.2149 106.097 37.4776C107.193 38.4692 108.13 39.627 109.785 39.9508L109.961 39.9252L110.013 39.7829L109.962 39.5728C108.937 36.8921 106.175 35.7639 104.225 33.8741C104.093 33.7547 103.849 33.2673 104.214 33.1911L107.354 33.6473C112.078 39.956 113.906 39.7042 113.906 39.7042C113.906 39.7042 115.323 40.0332 114.675 38.9947C113.134 37.3942 111.792 36.6591 109.951 35.1993C109.62 34.8834 108.792 34.3256 108.877 33.7594C109.552 33.8637 109.665 33.8548 111.04 34.0102C111.473 34.0722 112.058 34.1478 112.39 34.2964C114.857 35.3969 115.072 38.8487 121.06 39.5744C121.273 39.5932 121.319 39.3064 121.171 39.1187C119.461 37.7867 115.001 34.7953 114.727 34.4523C115.298 34.5039 117.696 34.8464 118.074 35.0231C121.086 36.6486 122.929 37.8613 127.237 37.2915C127.607 36.7498 127.007 36.5308 126.498 36.3301L124.071 35.386C123.757 35.2874 122.409 35.0231 121.926 34.8672C124.504 34.054 127.906 33.1145 130.176 31.7366C130.536 31.4546 130.961 31.2387 131.313 30.928C131.551 30.7179 131.754 30.4599 131.878 30.1116C131.999 29.7295 131.403 29.8953 131.403 29.8953ZM88.0508 30.3457C87.7792 30.1789 87.995 29.8478 88.0784 29.7112C88.1592 29.6111 89.0844 27.9465 89.9023 28.3745C90.0472 28.7864 88.6299 30.438 88.0508 30.3457ZM116.459 30.9348C116.005 31.6803 116.331 32.7454 115.737 33.4409L111.714 32.9227C114.049 32.0906 115.947 30.4953 117.069 29.8457L116.459 30.9348ZM120.8 34.0357C120.766 33.602 121.266 33.2167 121.578 32.9216C122.931 31.8138 123.134 32.8909 123.134 32.8909C122.519 33.3757 121.647 33.9471 120.8 34.0357Z" fill="#6C6F93"/>
</g>
<defs>
<clipPath id="clip0_3524_15101">
<rect width="122" height="61" fill="white" transform="translate(39 10)"/>
</clipPath>
</defs>
</svg>
