<svg width="200" height="80" viewBox="0 0 200 80" fill="none" xmlns="http://www.w3.org/2000/svg">
<rect width="200" height="80" rx="12" fill="white"/>
<path d="M182.699 48.628H160.394V47.8719H182.699V48.628ZM171.584 44.3939L173.701 42.3524L174.533 43.1841L172.265 45.0744C172.113 45.3012 171.962 45.6792 171.811 45.9061H170.148C170.415 45.2365 170.929 44.6952 171.584 44.3939ZM164.477 31.5402C164.401 31.5402 162.738 31.9939 162.738 31.9939C162.35 32.1479 161.971 32.3247 161.604 32.5231C161.226 32.75 160.848 33.128 160.848 33.3549L162.36 33.7329C162.567 33.4875 162.795 33.2599 163.04 33.0524L163.418 32.9012L164.628 31.6158C164.704 31.5402 164.704 31.4646 164.439 31.5402H164.477ZM174.684 35.6231C173.764 34.6175 172.905 33.5571 172.113 32.4475C172.683 31.0341 172.891 29.5007 172.718 27.9866C172.41 27.4291 172.056 26.8981 171.66 26.3988C171.509 26.1719 170.828 25.4158 170.526 25.4158C170.45 25.4158 170.374 25.4158 170.374 25.4914L170.45 26.3231C169.467 26.928 168.333 27.6841 167.35 28.4402C167.331 28.7447 167.356 29.0504 167.426 29.3475C167.585 29.4762 167.763 29.5783 167.955 29.65C168.628 29.4875 169.31 29.3613 169.996 29.2719L168.711 31.1622L167.199 32.2207L165.384 31.6158C165.233 31.6158 165.157 31.6158 165.082 31.6914L163.721 33.128C163.675 33.164 163.637 33.2098 163.611 33.2622C163.585 33.3145 163.571 33.372 163.569 33.4305L163.494 35.0183V35.5475C163.469 36.1704 163.655 36.7833 164.023 37.2866L164.855 36.0012C164.684 35.7195 164.556 35.4136 164.477 35.0939V33.7329L165.309 33.128L167.577 34.7158C167.921 35.3579 168.326 35.9656 168.787 36.5305C169.795 37.4115 170.883 38.1963 172.038 38.8744C172.135 39.4669 172.287 40.0491 172.491 40.6134L175.213 43.411L173.626 45.4524C173.32 45.6137 173.061 45.852 172.876 46.1437C172.69 46.4354 172.584 46.7705 172.567 47.1158H174.457L174.684 46.0573L176.952 43.5622C177.104 43.411 177.104 43.3353 177.028 43.1841L176.423 41.0671C176.997 40.4137 177.343 39.5907 177.406 38.7231C177.406 36.6817 175.365 36.1524 174.684 35.5853V35.6231ZM178.087 38.95C177.948 38.4581 177.771 37.9778 177.557 37.5134C177.557 37.5134 177.633 37.4378 177.86 37.5134C178.087 37.589 179.221 38.4207 179.221 38.4207C179.826 39.2524 180.204 42.8817 180.204 44.1671C179.541 43.8901 178.928 43.507 178.389 43.0329L178.087 38.95ZM120.169 38.1183C120.169 36.7573 119.716 35.6988 118.582 35.6988C117.448 35.6988 116.918 36.7573 116.918 38.1183V47.1158H118.279V48.5524H110.643V47.1158H112.079V34.7158H110.643V33.3171H116.616V35.661H116.691C117.027 34.8762 117.586 34.2072 118.298 33.7368C119.011 33.2664 119.845 33.0153 120.699 33.0146C121.64 32.9581 122.57 33.2508 123.309 33.8367C124.049 34.4226 124.546 35.2606 124.706 36.1902C124.853 37.0139 124.929 37.8487 124.933 38.6853V47.1536H126.748V48.5902H120.094L120.169 38.0805M89.2451 38.0805C89.2451 36.7195 88.7914 35.661 87.6573 35.661C86.5232 35.661 85.9939 36.7195 85.9939 38.0805V47.078H87.3549V48.5146H79.7183V47.078H81.1549V34.7158H79.7183V33.3171H85.6914V35.661H85.7671C86.1029 34.8762 86.6615 34.2072 87.3738 33.7368C88.0861 33.2664 88.9208 33.0153 89.7744 33.0146C90.716 32.9581 91.6455 33.2508 92.3848 33.8367C93.1242 34.4226 93.6215 35.2606 93.7817 36.1902C93.9288 37.0139 94.0047 37.8487 94.0085 38.6853V47.1536H95.8232V48.5902H89.1695L89.2451 38.0805ZM133.326 34.678V45.9439C133.314 46.0759 133.332 46.2088 133.377 46.3333C133.422 46.4578 133.494 46.5708 133.588 46.6645C133.682 46.7582 133.795 46.8302 133.919 46.8755C134.044 46.9209 134.177 46.9384 134.309 46.9268C134.617 46.9191 134.922 46.8681 135.216 46.7756V48.1366C134.305 48.6005 133.287 48.8095 132.267 48.7414C129.923 48.7414 128.487 47.6073 128.487 45.1122V34.7158H126.899V33.7329C128.713 32.2963 130.83 30.6329 132.494 29.2719H133.401V33.3171H135.707V34.678H133.326ZM37.9817 25.4158C37.9817 25.4158 41.6866 29.1207 43.35 31.011V32.4475C41.2003 30.4807 38.4001 29.3768 35.4866 29.3475C28.6061 29.3475 24.2963 34.5646 24.2963 40.9914C24.2963 47.4183 28.3793 52.5597 35.4866 52.5597C36.9697 52.5722 38.4396 52.2799 39.8052 51.7012C41.1708 51.1224 42.403 50.2695 43.4256 49.1951V50.5561C41.3085 53.5049 37.3768 55.3951 32.4622 55.3951C23.6915 55.4707 17.6427 49.1195 17.6427 41.0292C17.6565 39.1012 18.0514 37.1949 18.8048 35.4201C19.5581 33.6453 20.655 32.037 22.0324 30.6878C23.4097 29.3385 25.0403 28.275 26.8303 27.5584C28.6203 26.8418 30.5343 26.4862 32.4622 26.5122C34.3387 26.518 36.2021 26.8243 37.9817 27.4195V25.4158ZM108.374 44.5451C107.969 45.0254 107.457 45.4051 106.88 45.6543C106.303 45.9036 105.675 46.0156 105.048 45.9817C103.687 45.9817 101.494 45.2256 101.418 41.6719H109.584C109.584 41.3695 109.66 40.8402 109.66 40.5378C109.66 36.228 107.921 33.0524 103.309 33.0524C98.6963 33.0524 96.3524 36.6061 96.3524 40.9914C96.3524 45.3768 98.6963 48.8549 103.309 48.8549C104.544 48.9209 105.772 48.6184 106.835 47.9857C107.899 47.353 108.75 46.4187 109.282 45.3012L108.374 44.5451ZM101.343 40.1597C101.343 36.1524 101.645 34.6402 103.006 34.6402C104.367 34.6402 104.67 36.0768 104.745 40.1597H101.343ZM33.9744 40.9158C33.9744 36.228 34.428 34.1866 36.0158 34.1866C37.6036 34.1866 38.0573 36.228 38.0573 40.9158C38.0573 45.6036 37.6036 47.6451 36.0158 47.6451C34.428 47.6451 33.9744 45.6036 33.9744 40.9158ZM28.3036 40.9914C28.3036 45.6036 31.1012 49.3841 36.0158 49.3841C40.9305 49.3841 43.728 45.6036 43.728 40.9914C43.728 36.3792 40.9305 32.561 36.0158 32.561C31.1012 32.561 28.3036 36.3414 28.3036 40.9536M54.4646 38.0805C54.4646 36.7195 54.011 35.661 52.8768 35.661C51.7427 35.661 51.2134 36.7195 51.2134 38.0805V47.078H52.5366V48.5146H44.9378V47.078H46.3744V34.7158H44.9378V33.3171H50.911V35.661H50.9866C51.3224 34.8762 51.8811 34.2072 52.5934 33.7368C53.3056 33.2664 54.1403 33.0153 54.9939 33.0146C55.9355 32.9581 56.865 33.2508 57.6043 33.8367C58.3437 34.4226 58.841 35.2606 59.0012 36.1902C59.1483 37.0139 59.2242 37.8487 59.228 38.6853V47.1536H61.0427V48.5902H54.389V38.1183L54.4646 38.0805ZM71.7793 29.2341C71.7793 30.5951 72.989 31.5024 74.728 31.5024C76.4671 31.5024 77.6768 30.5951 77.6768 29.2341C77.6768 27.8731 76.4671 26.9658 74.728 26.9658C72.989 26.9658 71.7793 27.9488 71.7793 29.2341ZM67.6207 34.678V45.9439C67.6092 46.0759 67.6267 46.2088 67.672 46.3333C67.7173 46.4578 67.7893 46.5708 67.883 46.6645C67.9767 46.7582 68.0898 46.8302 68.2143 46.8755C68.3388 46.9209 68.4717 46.9384 68.6036 46.9268C68.9117 46.9191 69.2171 46.8681 69.511 46.7756V48.1366C68.6006 48.6005 67.5817 48.8095 66.5622 48.7414C64.2183 48.7414 62.7817 47.6073 62.7817 45.1122V34.7158H61.1939V33.7329C63.0085 32.2963 65.1256 30.6329 66.789 29.2719H67.6585V33.3171H69.5488V34.678H67.6207ZM156.84 47.1536H158.73V48.5902H152.001V29.1207H150.338V27.6841H156.878V47.1914L156.84 47.1536ZM143.911 41.0292C143.612 40.7926 143.231 40.6839 142.852 40.7268C141.416 40.7268 141.113 42.1634 141.113 43.6C141.113 45.0366 141.567 46.1707 142.777 46.1707C142.988 46.1911 143.202 46.1606 143.399 46.0817C143.596 46.0028 143.772 45.8777 143.911 45.7171V41.0292ZM144.062 46.7756C143.629 47.4395 143.033 47.9821 142.332 48.3525C141.631 48.7229 140.848 48.9087 140.055 48.8927C137.56 48.8927 136.048 46.7756 136.048 44.2049C136.048 41.1805 138.24 39.2146 141.718 39.2146C142.461 39.1882 143.203 39.2905 143.911 39.5171V38.5341C143.943 38.1586 143.893 37.7806 143.764 37.4266C143.635 37.0725 143.43 36.751 143.163 36.4845C142.897 36.218 142.575 36.0129 142.221 35.8838C141.867 35.7546 141.489 35.7043 141.113 35.7366C140.431 35.7379 139.758 35.9035 139.153 36.2193C138.548 36.5352 138.027 36.992 137.635 37.5512L136.804 36.4927C137.439 35.452 138.326 34.5879 139.383 33.9801C140.44 33.3723 141.633 33.0402 142.852 33.0146C146.557 33.0146 148.75 35.2073 148.75 38.5341V47.1536H150.338V48.5902H144.138L144.062 46.7756ZM70.9475 48.5902V47.1536H72.3085V34.7158H70.9475V33.3171H77.1476V47.1536H78.5841V48.5902H70.9475Z" fill="#6C6F93"/>
</svg>
