<svg width="57" height="56" viewBox="0 0 57 56" fill="none" xmlns="http://www.w3.org/2000/svg">
<path fill-rule="evenodd" clip-rule="evenodd" d="M48.82 5.35001C48.3802 4.91611 47.7878 4.67197 47.17 4.67001H9.83C9.2122 4.67197 8.61979 4.91611 8.18 5.35001C7.7461 5.78981 7.50196 6.38221 7.5 7.00001V49C7.49999 49.6189 7.74516 50.2126 8.18183 50.6511C8.61851 51.0897 9.21113 51.3374 9.83 51.34H47.17C47.7889 51.3374 48.3815 51.0897 48.8182 50.6511C49.2548 50.2126 49.5 49.6189 49.5 49V7.00001C49.498 6.38221 49.2539 5.78981 48.82 5.35001ZM27.87 42.12C27.87 42.2659 27.8121 42.4058 27.7089 42.5089C27.6058 42.6121 27.4659 42.67 27.32 42.67C23.5651 42.6531 19.8184 42.3186 16.12 41.67C15.9795 41.6433 15.8554 41.562 15.7747 41.4439C15.6941 41.3258 15.6637 41.1806 15.69 41.04L16.69 35.64C16.719 35.5008 16.8009 35.3782 16.9184 35.2981C17.0358 35.2179 17.1798 35.1863 17.32 35.21C20.6216 35.7968 23.9668 36.1045 27.32 36.13C27.4607 36.1351 27.594 36.1939 27.6926 36.2944C27.7912 36.3948 27.8475 36.5293 27.85 36.67L27.87 42.12ZM37.67 31.25C34.4349 31.8236 31.1556 32.1114 27.87 32.11C24.5844 32.1114 21.3051 31.8236 18.07 31.25C17.9269 31.2233 17.8002 31.1409 17.7177 31.0209C17.6353 30.901 17.6037 30.7532 17.63 30.61L18.63 25.22C18.6567 25.0795 18.738 24.9554 18.8561 24.8748C18.9742 24.7941 19.1195 24.7637 19.26 24.79C24.9539 25.7801 30.7761 25.7801 36.47 24.79C36.609 24.7666 36.7517 24.7984 36.8676 24.8788C36.9834 24.9591 37.0632 25.0816 37.09 25.22L38.09 30.61C38.1046 30.6796 38.1053 30.7514 38.0921 30.8213C38.0789 30.8912 38.052 30.9578 38.013 31.0173C37.974 31.0768 37.9236 31.1279 37.8647 31.1679C37.8059 31.2078 37.7397 31.2357 37.67 31.25ZM40.94 19.67C39.402 20.1324 37.8396 20.5097 36.26 20.8C33.4927 21.3122 30.6843 21.5699 27.87 21.57C25.2392 21.5676 22.6132 21.3435 20.02 20.9C19.8769 20.8733 19.7502 20.7909 19.6677 20.6709C19.5853 20.551 19.5537 20.4032 19.58 20.26L20.58 14.86C20.592 14.7909 20.6177 14.7248 20.6555 14.6656C20.6933 14.6065 20.7424 14.5554 20.8001 14.5154C20.8578 14.4754 20.9228 14.4472 20.9915 14.4326C21.0601 14.4179 21.131 14.4171 21.2 14.43C25.7864 15.2103 30.4741 15.1799 35.05 14.34C36.3708 14.079 37.6761 13.7451 38.96 13.34C39.0953 13.2991 39.2412 13.3128 39.3665 13.3782C39.4917 13.4437 39.5863 13.5556 39.63 13.69L41.29 18.93C41.3199 19.0012 41.3345 19.0779 41.3327 19.1551C41.331 19.2323 41.3131 19.3083 41.2801 19.3781C41.2471 19.4479 41.1997 19.51 41.1411 19.5603C41.0825 19.6106 41.014 19.648 40.94 19.67Z" fill="#1463FF"/>
</svg>
