<svg width="159" height="32" viewBox="0 0 159 32" fill="none" xmlns="http://www.w3.org/2000/svg">
<path d="M9.74363 10.5452C7.6434 10.5447 5.54705 10.365 3.47737 10.0081C3.42026 9.9979 3.36574 9.97647 3.31696 9.94507C3.26818 9.91366 3.22611 9.87289 3.19318 9.82513C3.16025 9.77737 3.13711 9.72355 3.1251 9.6668C3.1131 9.61004 3.11246 9.55146 3.12323 9.49445L3.92225 5.19793C3.94361 5.08463 4.0087 4.98428 4.10344 4.91856C4.19818 4.85284 4.31497 4.82703 4.42857 4.84671C8.09051 5.46765 11.8329 5.4419 15.486 4.77061C16.5386 4.57557 17.5801 4.32449 18.6059 4.01843C18.7171 3.98516 18.837 3.99726 18.9393 4.05211C19.0416 4.10695 19.118 4.20008 19.1518 4.31111L20.4688 8.47886C20.4862 8.53429 20.4924 8.59262 20.4871 8.65047C20.4817 8.70831 20.4649 8.76451 20.4377 8.81583C20.4105 8.86715 20.3734 8.91255 20.3285 8.94941C20.2836 8.98627 20.2318 9.01385 20.1762 9.03056C18.9477 9.4002 17.7 9.7026 16.4387 9.9364C14.2302 10.3428 11.9892 10.5466 9.74363 10.5452Z" fill="#293FFF"/>
<path d="M9.74367 18.9802C7.12008 18.9818 4.50137 18.7541 1.91744 18.2997C1.86033 18.2895 1.80581 18.2681 1.75703 18.2366C1.70825 18.2052 1.66617 18.1645 1.63324 18.1167C1.60031 18.069 1.57718 18.0151 1.56517 17.9584C1.55317 17.9016 1.55252 17.843 1.56329 17.786L2.36962 13.491C2.39097 13.3771 2.45648 13.2762 2.55188 13.2104C2.64728 13.1446 2.76483 13.1192 2.87889 13.1398C7.42167 13.9256 12.0657 13.9256 16.6085 13.1398C16.7225 13.1192 16.8401 13.1446 16.9355 13.2104C17.0309 13.2762 17.0964 13.3771 17.1177 13.491L17.9211 17.786C17.9319 17.843 17.9312 17.9016 17.9192 17.9584C17.9072 18.0151 17.8841 18.069 17.8512 18.1167C17.8182 18.1645 17.7762 18.2052 17.7274 18.2366C17.6786 18.2681 17.6241 18.2895 17.567 18.2997C14.984 18.754 12.3663 18.9817 9.74367 18.9802Z" fill="#1579FF"/>
<path d="M9.30169 27.4137C6.30353 27.3893 3.31266 27.1142 0.360354 26.5913C0.303376 26.5809 0.249017 26.5594 0.200403 26.5279C0.151789 26.4964 0.109881 26.4556 0.0770985 26.4079C0.0443163 26.3601 0.0213007 26.3064 0.00938608 26.2497C-0.00252856 26.193 -0.0031029 26.1346 0.0076801 26.0777L0.809617 21.7826C0.830975 21.669 0.896275 21.5684 0.991345 21.5026C1.08641 21.4369 1.20358 21.4113 1.31741 21.4314C3.95504 21.8954 6.62658 22.1401 9.30462 22.1631C9.42106 22.1631 9.53273 22.2093 9.61506 22.2917C9.69739 22.374 9.74364 22.4857 9.74364 22.6021V26.9718C9.74403 27.0299 9.73286 27.0876 9.71079 27.1414C9.68872 27.1952 9.65618 27.244 9.61507 27.2852C9.57395 27.3263 9.52508 27.3588 9.47128 27.3809C9.41749 27.403 9.35984 27.4141 9.30169 27.4137Z" fill="#00B3FF"/>
<path d="M36.0204 10.9344V11.7071H40.5145V14.1949H36.0204V25.9576H33.1126V14.1846H30.7346V11.7071H33.1126V10.889C33.1126 7.42519 35.3077 5.47449 38.5843 5.47449C39.7929 5.47923 40.9818 5.78074 42.0467 6.35252L41.1218 8.7042C40.2438 8.33543 39.5121 8.14958 38.9545 8.14958C37.0506 8.13202 36.0204 9.1359 36.0204 10.9344Z" fill="#010342"/>
<path d="M42.6803 13.5247C44.1085 12.07 45.8997 11.3296 48.0948 11.3296C50.2899 11.3296 52.0855 12.0686 53.4875 13.5247C54.9143 14.9778 55.6284 16.7222 55.6284 18.8104C55.6284 20.925 54.9143 22.6958 53.4875 24.1504C52.0855 25.6035 50.2885 26.3177 48.0948 26.3177C45.9012 26.3177 44.1159 25.6094 42.6803 24.146C41.2798 22.6914 40.5657 20.9265 40.5657 18.806C40.5657 16.7222 41.2798 14.9778 42.6803 13.5247ZM51.3509 15.4534C50.9446 14.9942 50.4434 14.6288 49.8819 14.3825C49.3205 14.1361 48.7122 14.0147 48.0992 14.0266C47.4828 14.0173 46.8714 14.1399 46.3061 14.3859C45.7408 14.632 45.2345 14.9959 44.8212 15.4534C43.9717 16.3701 43.4996 17.5738 43.4996 18.8236C43.4996 20.0734 43.9717 21.2771 44.8212 22.1938C45.2397 22.643 45.7475 22.9996 46.3121 23.2408C46.8766 23.482 47.4854 23.6024 48.0992 23.5943C48.7096 23.6051 49.3152 23.4857 49.8759 23.2443C50.4366 23.0028 50.9394 22.6447 51.3509 22.1938C52.2161 21.285 52.6986 20.0784 52.6986 18.8236C52.6986 17.5689 52.2161 16.3622 51.3509 15.4534Z" fill="#010342"/>
<path d="M57.5602 25.9474V11.7071H60.3406V13.7427C61.1865 12.133 62.5357 11.3383 64.384 11.3383C64.9565 11.3339 65.5265 11.4137 66.0757 11.5754V14.4042C65.5737 14.2183 64.7806 14.1393 64.2523 14.1393C62.0323 14.1393 60.4723 15.6729 60.4723 18.6597V25.9547L57.5602 25.9474Z" fill="#010342"/>
<path d="M88.4187 12.9686C89.4753 14.0529 90.0036 15.5602 90.0036 17.4363V25.9474H87.0958V17.9119C87.0958 15.4007 85.827 14.0266 83.8456 14.0266C81.731 14.0266 80.2764 15.5866 80.2764 17.9909V25.9474H77.3701V17.9646C77.3701 15.5061 76.1013 14.0266 74.0921 14.0266C71.9775 14.0266 70.4965 15.6129 70.4965 18.0436V25.9459H67.5902V11.7071H70.4438V13.7559C71.2897 12.25 72.876 11.2988 74.7521 11.2988C76.6296 11.3252 78.374 12.25 79.1422 13.9154C80.1198 12.3291 82.1027 11.2988 84.2963 11.2988C86.0134 11.3027 87.3875 11.8593 88.4187 12.9686Z" fill="#010342"/>
<path d="M94.047 24.146C92.6465 22.744 91.9324 20.9733 91.9324 18.806C91.9324 16.6109 92.6465 14.8417 94.0733 13.4412C95.5001 12.0408 97.325 11.3266 99.5713 11.3266C102.426 11.3266 104.986 12.7798 106.126 15.1315L103.721 16.4792C102.843 14.9719 101.289 13.9915 99.5976 13.9915C98.2498 13.9915 97.1099 14.4407 96.2143 15.3656C95.3187 16.2905 94.8665 17.4275 94.8665 18.8016C94.8524 19.4245 94.9615 20.0441 95.1876 20.6247C95.4136 21.2053 95.752 21.7356 96.1835 22.185C97.0616 23.1099 98.165 23.5591 99.4879 23.5591C101.18 23.5591 102.898 22.5348 103.637 21.1284L106.047 22.5362C104.876 24.7562 102.32 26.2372 99.4615 26.2372C97.2708 26.2386 95.4474 25.5508 94.047 24.146Z" fill="#010342"/>
<path d="M117.676 12.8105C118.892 13.788 119.5 15.3217 119.5 17.3573V25.921H116.804V24.124C115.72 25.5771 114.133 26.3191 111.993 26.3191C110.383 26.3191 109.113 25.8698 108.16 25.002C107.235 24.124 106.759 23.0191 106.759 21.6713C106.759 19.0021 108.979 17.2299 112.972 17.2036C114.742 17.2036 115.985 17.1509 116.724 17.0455C116.539 14.9573 115.323 13.9271 113.024 13.9271C111.471 13.9335 109.951 14.3729 108.634 15.1958L107.419 13.0285C109.004 11.8915 110.908 11.3368 113.102 11.3368C114.953 11.331 116.487 11.8329 117.676 12.8105ZM115.383 22.564C116.176 21.7445 116.626 20.6879 116.7 19.4192C115.805 19.515 114.905 19.559 114.005 19.5509C111.044 19.5509 109.696 19.9475 109.696 21.6655C109.696 23.0133 110.779 23.8064 112.366 23.8064C112.928 23.8215 113.486 23.7188 114.006 23.5048C114.526 23.2908 114.995 22.9703 115.383 22.564Z" fill="#010342"/>
<path d="M121.429 25.9474V11.7071H124.209V13.7427C125.055 12.133 126.404 11.3383 128.254 11.3383C128.826 11.334 129.396 11.4139 129.946 11.5754V14.4041C129.442 14.2183 128.65 14.1393 128.121 14.1393C125.901 14.1393 124.341 15.6729 124.341 18.6597V25.9547L121.429 25.9474Z" fill="#010342"/>
<path d="M131.453 25.9474V11.7071H134.233V13.7427C135.079 12.133 136.428 11.3383 138.277 11.3383C138.849 11.3339 139.419 11.4137 139.968 11.5754V14.4042C139.466 14.2183 138.673 14.1393 138.145 14.1393C135.925 14.1393 134.365 15.6729 134.365 18.6597V25.9547L131.453 25.9474Z" fill="#010342"/>
<path d="M152.659 11.7071H155.858L149.963 27.2425C148.695 30.5995 147.082 32 144.651 32C143.646 32 142.826 31.7893 142.219 31.3927L142.642 28.8815C143.196 29.1481 143.798 29.3008 144.413 29.3308C145.583 29.3308 146.501 28.5113 147.215 26.8986L147.664 25.8421L141.479 11.7071H144.836L149.012 21.9904L152.659 11.7071Z" fill="#010342"/>
<path d="M155.065 24.4679C155.064 24.2236 155.113 23.9817 155.208 23.7566C155.303 23.5315 155.442 23.3278 155.618 23.1576C155.793 22.9873 156.001 22.8541 156.228 22.7657C156.456 22.6773 156.699 22.6356 156.944 22.6431C157.422 22.6566 157.876 22.8561 158.21 23.1991C158.543 23.5422 158.73 24.0019 158.73 24.4804C158.73 24.9588 158.543 25.4185 158.21 25.7616C157.876 26.1047 157.422 26.3042 156.944 26.3177C156.698 26.3244 156.453 26.2813 156.224 26.1911C155.994 26.1009 155.786 25.9654 155.611 25.7927C155.435 25.6199 155.296 25.4136 155.203 25.186C155.109 24.9583 155.062 24.7141 155.065 24.4679Z" fill="#010342"/>
</svg>
