<svg width="200" height="80" viewBox="0 0 200 80" fill="none" xmlns="http://www.w3.org/2000/svg">
<rect width="200" height="80" rx="12" fill="white"/>
<g clipPath="url(#clip0_3523_15086)">
<path d="M64.8367 17H75.877C78.5565 17 80.7136 19.1572 80.7136 21.8367V59.1633C80.7136 61.8428 78.5565 64 75.877 64H64.8367C62.1572 64 60 61.8428 60 59.1633V21.8367C60 19.1572 62.1572 17 64.8367 17Z" fill="white" />
<path d="M73.1348 25.6152L73.1502 25.7742C73.4833 25.971 73.6574 26.13 73.998 26.3495C74.8913 26.9173 75.9892 27.9242 75.8528 31.3839C76.1101 32.1409 76.2238 33.6172 76.4509 34.0865C76.9128 35.0177 77.2307 35.6233 77.3669 36.4939C77.3669 36.4939 77.5033 37.8566 77.6773 37.955C78.6008 38.167 78.3361 38.2579 78.4646 38.4244C78.6084 38.6061 79.1459 38.5985 79.1459 39.0982C79.3352 39.348 79.4791 39.5978 79.5774 39.8704V21.8754C79.5774 19.8162 77.9119 18.1507 75.8602 18.1507H72.3095C72.8773 18.3551 73.2029 18.5974 73.3922 18.9759C73.8462 19.0137 74.3841 20.0357 73.5435 21.5574C73.9144 21.8148 73.6267 22.1933 73.3617 22.6248C73.2785 22.7611 73.1952 23.0109 72.9454 22.9958C72.6123 23.6847 72.2261 24.3358 71.931 24.3736C71.8478 24.4796 71.7871 24.7749 71.9158 24.9111C72.3476 25.108 72.8698 25.3654 73.1348 25.6152Z" fill="#6C6F93"/>
<path d="M76.4507 62.8012L76.4129 62.8088C78.0405 61.8171 77.0336 59.9397 76.7233 58.8344L76.7838 58.6449C76.867 58.4935 76.693 58.1378 76.693 58.1378C76.4887 57.9713 76.4432 57.0478 76.3371 56.6238C76.1632 55.9349 76.6475 54.7312 76.6475 54.3224C76.6475 53.9134 76.3371 53.3533 75.777 52.6418C75.6406 52.4828 75.2318 48.9928 74.8684 48.1071C74.3612 46.8881 74.2097 47.0848 73.6043 45.6239C73.1424 44.6018 73.5058 43.0954 72.4611 39.5979L72.6957 39.3783C72.6957 39.3783 71.863 36.335 71.5903 35.5022C71.3252 34.6695 70.8334 34.6165 70.8334 34.6165L70.8636 34.185C70.9015 34.0563 71.878 31.5202 71.9613 31.4369C71.9687 31.3839 73.3694 30.4224 73.392 30.5663C73.5054 31.1871 74.0506 34.3439 74.2852 34.8436C74.5199 35.3508 75.3301 36.8952 75.701 37.8566C74.255 38.2125 73.1723 39.5221 73.1723 41.0742C73.1723 42.9063 74.6563 44.3975 76.4883 44.3975C77.8886 44.3975 79.1001 43.527 79.5845 42.3006L79.577 59.1299C79.5773 60.992 78.2373 62.5287 76.4507 62.8012Z" fill="#6C6F93"/>
<path d="M71.1437 18.1507C69.9324 18.6201 69.7658 19.1424 69.7205 20.8231C69.5161 20.8458 69.0921 20.649 69.236 21.671C69.236 21.671 69.3117 22.3523 69.5843 22.2387C69.3723 23.7226 69.5407 24.0939 68.5548 24.1995C68.3428 24.2222 68.0853 24.2374 67.7675 24.2525L67.669 24.3888C66.3215 24.5175 65.654 24.4313 64.7846 25.5773C64.4515 26.0164 64.0957 26.6372 63.6566 27.5229C63.6566 27.5229 63.2553 28.5147 63.1341 28.9235C62.748 29.7335 61.8017 31.5277 61.5216 32.6784C61.4309 33.0721 61.2566 33.1932 61.5065 33.761C61.8774 34.5786 61.2642 34.7906 63.3688 34.73V35.2145C63.3688 35.2145 62.8086 35.699 62.6875 35.9867C62.5739 36.282 62.2484 37.7279 62.2636 38.4168C62.3014 40.211 63.7626 41.7099 64.194 43.4966L65.1706 43.633C65.7005 44.8518 68.0171 48.1372 68.5547 48.6673C68.5622 48.6748 68.5698 48.6825 68.5774 48.6901C68.6984 49.0004 69.2966 49.3866 69.6447 49.7726C69.8568 49.9771 70.8335 51.0369 72.1355 52.0439C72.6135 52.4135 73.1275 52.7781 73.6647 53.0886C73.6496 53.0809 73.9827 53.7473 74.1493 54.2922C73.4831 54.8296 74.7776 55.814 75.1713 57.4416C75.194 57.661 74.7926 57.8807 75.3908 58.4181C75.353 60.8783 74.6036 62.1656 75.8602 62.8467H64.7846C62.7709 62.8013 61.1432 61.1511 61.1432 59.1296V21.8754C61.1432 19.8389 62.7708 18.1961 64.7846 18.1507H71.1437Z" fill="#6C6F93"/>
<path fillRule="evenodd" clipRule="evenodd" d="M86.285 18.129V62.7943H91.1125C91.1251 51.2918 91.3859 39.7429 90.6781 28.375L96.2435 62.7943H103.17V18.129H98.3901C98.2928 29.9716 98.7133 41.6488 99.5163 53.2037L93.7332 18.129H86.285Z" fill="#6C6F93"/>
<path fillRule="evenodd" clipRule="evenodd" d="M128.133 18.0981L123.388 62.801H129.291L130.064 53.7617H133.926L134.698 62.801H140.574L135.967 18.0981H128.133ZM131.995 30.7161L133.485 48.517H130.505L131.995 30.7161Z" fill="#6C6F93"/>
<path d="M106.892 18.1289V62.7701H115.526C116.941 62.7701 121.761 61.5333 121.761 55.3351V46.4192C121.761 45.4797 121.768 42.5347 119.195 40.8043C120.803 40.8043 121.761 37.6847 121.761 34.8501V25.2863C121.761 21.56 119.441 18.1188 114.781 18.1289H106.892ZM112.216 23.8363H114.836C116.037 23.8363 116.436 25.1617 116.436 26.181V36.5777C116.436 38.3561 115.852 38.4905 114.643 38.4905H112.216V23.8363ZM112.216 43.3649H114.836C116.037 43.3649 116.436 44.6903 116.436 45.7096V54.9957C116.436 56.2056 115.833 57.1244 114.643 57.1244L112.216 57.1552V43.3649Z" fill="#6C6F93"/>
</g>
<defs>
<clipPath id="clip0_3523_15086">
<rect width="80.5741" height="47" fill="white" transform="translate(60 17)"/>
</clipPath>
</defs>
</svg>
