<svg width="200" height="80" viewBox="0 0 200 80" fill="none" xmlns="http://www.w3.org/2000/svg">
<rect width="200" height="80" rx="12" fill="white"/>
<path d="M33.6045 25.9254C33.1925 26.6119 33.8448 26.9552 35.4582 26.9552H37.106L42.5985 40.4119C45.9284 48.6164 48.2627 53.9373 48.5716 54.006C48.9149 54.0746 49.7388 52.4955 51.2493 48.8567C52.4164 45.9731 54.9567 39.8627 56.8448 35.2627L60.2776 26.9552H62.1314C63.7791 26.9552 63.9851 26.8866 63.9851 26.2687C63.9851 25.5821 63.8134 25.5478 59.9687 25.6508C56.6388 25.7194 55.9179 25.8567 55.9179 26.2687C55.9179 26.6119 56.3642 26.8179 57.394 26.8866C58.1836 26.9552 58.8358 27.0582 58.8358 27.1612C58.8358 27.3328 53.1373 41.2702 51.5239 45.1149L51.0433 46.2821L47.2328 36.7045L43.4224 27.1269L45.3791 26.9552C46.8209 26.8179 47.3358 26.6463 47.3358 26.2687C47.3358 25.8224 46.306 25.7537 40.5731 25.6508C36.2478 25.6164 33.7418 25.6851 33.6045 25.9254Z" fill="#6C6F93"/>
<path d="M65.7015 26.2687C65.7015 26.8523 65.9075 26.9552 67.4179 26.9552H69.1343V40V53.0448H67.4179C66.1134 53.0448 65.7015 53.1821 65.7015 53.5597C65.7015 54.006 66.697 54.0746 72.6015 54.0746C77.9567 54.0746 79.4672 53.9717 79.3642 53.6284C79.2612 53.3881 78.4717 53.1821 77.4418 53.1135L75.6567 53.0105V40V26.9896L77.4761 26.8866C78.7806 26.8179 79.2612 26.6463 79.2612 26.2687C79.2612 25.8224 78.2314 25.7537 72.4985 25.6508C65.8731 25.5821 65.7015 25.5821 65.7015 26.2687Z" fill="#6C6F93"/>
<path d="M80.9776 25.9254C80.6 26.5433 81.1836 26.9552 82.4881 26.9552H83.7925L88.4955 34.3702C91.0701 38.4896 93.1298 42.0254 93.0269 42.3C92.9239 42.5403 90.8642 45.0806 88.4612 47.8955L84.1015 53.0448H82.4537C81.2179 53.0448 80.806 53.1821 80.806 53.5597C80.806 53.9717 81.4925 54.0746 84.9254 54.0746C88.3582 54.0746 89.0448 53.9717 89.0448 53.5597C89.0448 53.1821 88.6328 53.0448 87.5 53.0448C86.6418 53.0448 85.9552 52.9761 85.9552 52.8732C85.9552 52.5299 93.6448 43.6045 93.9537 43.6045C94.2627 43.6045 99.9955 52.2552 100.03 52.7702C100.03 52.9075 99.309 53.0448 98.4164 53.1135C97.5239 53.1821 96.7687 53.4224 96.6657 53.6284C96.5627 53.9717 98.1418 54.0746 103.806 54.0746C109.47 54.0746 111.049 53.9717 110.946 53.6284C110.843 53.4224 110.122 53.1821 109.264 53.1135L107.754 53.0105L104.493 47.7926C102.707 44.9433 100.579 41.5448 99.7896 40.2746L98.3134 37.9746L102.948 32.4821L107.582 26.9896L109.23 26.8866C110.397 26.8179 110.843 26.6463 110.843 26.2687C110.843 25.8567 110.191 25.7538 107.067 25.7538C103.943 25.7538 103.291 25.8567 103.291 26.2687C103.291 26.612 103.737 26.8523 104.596 26.9552L105.9 27.1269L102.021 31.7612C99.8925 34.3358 98.0045 36.4642 97.7985 36.5329C97.6269 36.6015 96.1164 34.5075 94.503 31.8985L91.5507 27.1269L93.0612 27.0239C94.2627 26.9209 94.5373 26.7836 94.5373 26.2343C94.5373 25.6164 94.2627 25.5821 87.8776 25.5821C83.7925 25.5821 81.1149 25.7194 80.9776 25.9254Z" fill="#6C6F93"/>
<path d="M112.56 25.9254C112.148 26.612 112.8 26.9552 114.482 26.9552H116.164V39.9657V53.0105L114.379 53.1135C113.349 53.1821 112.56 53.3881 112.457 53.6284C112.354 53.9717 115.066 54.0746 125.227 54.0746H138.134V49.406C138.134 44.1881 137.791 43.6045 136.59 46.9C135.766 49.2343 132.985 52.1179 131.063 52.6672C130.342 52.8732 128.145 53.0448 126.222 53.0448H122.687V46.5224C122.687 42.9179 122.652 39.897 122.618 39.7254C122.446 39.3135 124.849 39.2448 126.154 39.6224C127.733 40.103 128.385 40.8582 129.381 43.2955C129.827 44.394 130.376 45.3552 130.548 45.4239C130.822 45.5269 130.925 43.5015 130.925 39.1761C130.925 34.1985 130.822 32.7911 130.479 32.7911C130.239 32.7911 129.861 33.512 129.621 34.3702C129.346 35.3314 128.728 36.4299 128.042 37.1164C126.978 38.1806 126.703 38.2836 124.781 38.2836H122.687V32.6194V26.9552H126.566C129.861 26.9552 130.651 27.0582 132.127 27.7791C133.912 28.603 136.521 31.109 136.933 32.4135C137.036 32.7911 137.379 33.1343 137.654 33.1343C138.031 33.1343 138.134 32.4135 138.134 29.3582V25.5821H125.467C117.366 25.5821 112.697 25.7194 112.56 25.9254Z" fill="#6C6F93"/>
<path d="M140.022 25.9254C139.61 26.5776 140.228 26.9552 141.773 26.9552H143.284V40V53.0448H141.567C140.263 53.0448 139.851 53.1821 139.851 53.5597C139.851 54.006 140.572 54.0746 144.142 54.0746C147.712 54.0746 148.433 54.006 148.433 53.5597C148.433 53.1478 147.987 53.0448 146.545 53.0448H144.691L144.588 41.3732C144.519 34.9538 144.588 29.7358 144.725 29.7702C144.863 29.8388 148.776 35.3314 153.41 41.9567C161.237 53.1821 161.958 54.0746 162.885 54.0746H163.881V40.5493V26.9896L165.528 26.8866C166.696 26.8179 167.142 26.6463 167.142 26.2687C167.142 25.8567 166.387 25.7538 162.954 25.6508C158.903 25.5821 158.731 25.5821 158.731 26.2687C158.731 26.8866 158.937 26.9552 160.619 26.9552H162.473L162.576 35.3657C162.645 40 162.61 43.7761 162.507 43.7761C162.404 43.7761 159.487 39.6567 156.019 34.6791L149.703 25.5821H144.966C142.185 25.5821 140.16 25.7194 140.022 25.9254Z" fill="#6C6F93"/>
</svg>
