<svg width="200" height="80" viewBox="0 0 200 80" fill="none" xmlns="http://www.w3.org/2000/svg">
<path d="M0 12C0 5.37258 5.37258 0 12 0H188C194.627 0 200 5.37258 200 12V68C200 74.6274 194.627 80 188 80H12C5.37258 80 0 74.6274 0 68V12Z" fill="white"/>
<g clip-path="url(#clip0_145_993)">
<path d="M53.1788 27.2657C52.9976 27.5266 52.9595 27.6405 53.0405 27.6737C53.0644 27.6785 53.2503 28.0485 53.4505 28.4945C53.6554 28.9358 53.8938 29.4624 53.9843 29.6569C54.2703 30.2595 54.3657 30.4825 54.4038 30.5963C54.4229 30.658 54.6517 31.1562 54.9091 31.7066C55.1665 32.2522 55.381 32.7077 55.381 32.7172C55.381 32.7266 55.5669 33.1204 55.7909 33.5949C56.015 34.0693 56.2581 34.6102 56.3343 34.7953C56.4058 34.985 56.73 35.692 57.0494 36.3704C57.7834 37.9266 58.1314 38.6858 58.241 38.9562C58.3316 39.1839 59.0704 40.7828 59.4137 41.504L59.6234 41.9453V47.2686L59.6282 52.5967L59.8188 52.796L60.0095 53H61.7684H63.5273L63.718 52.796L63.9087 52.5967L63.9134 47.3303V42.0686L64.0755 41.708C64.1661 41.5135 64.3997 40.9869 64.5999 40.5456C64.7953 40.0996 65.1909 39.2314 65.4817 38.6146C65.7677 37.9931 66.1252 37.215 66.2634 36.8828C66.4065 36.5507 66.6734 35.9529 66.8593 35.5639C67.6935 33.7799 68.1558 32.7836 68.1558 32.7599C68.1558 32.7266 68.4037 32.1668 68.623 31.6971C69.5382 29.7471 70.4915 27.6358 70.4915 27.5551C70.4915 27.5314 70.4296 27.4223 70.3485 27.3084C70.2723 27.1945 70.2055 27.0807 70.2055 27.0522C70.2055 27.0142 69.6049 27 68.2464 27C66.5828 27 66.2778 27.0095 66.2205 27.0712C66.1824 27.1091 66.1204 27.1566 66.0871 27.1755C66.0251 27.2135 65.8392 27.5788 65.3673 28.6131C65.2291 28.912 64.986 29.4245 64.8287 29.7518C64.5331 30.3734 64.2471 31.0091 64.2471 31.0518C64.2471 31.0661 64.1518 31.2748 64.0374 31.5168C63.923 31.7588 63.6799 32.2759 63.494 32.6697C63.3128 33.0588 62.9601 33.8179 62.7122 34.354C62.4644 34.8901 62.145 35.5876 62.0068 35.9055L61.7541 36.4796L61.5444 36.0241C60.7626 34.3255 60.3575 33.4336 60.2431 33.1442C60.1716 32.9591 59.9666 32.5036 59.7902 32.1241C59.6139 31.7445 59.3088 31.085 59.1133 30.6533C58.9179 30.2215 58.6939 29.7328 58.6128 29.562C58.5366 29.3912 58.3936 29.0734 58.303 28.8504C58.2124 28.6274 58.0075 28.1672 57.8502 27.8208C57.6118 27.3084 57.5356 27.185 57.4212 27.1376C57.3497 27.1091 57.2877 27.0664 57.2877 27.0427C57.2877 27.019 56.4201 27 55.3238 27L53.3551 27.0047L53.1788 27.2657Z" fill="#6C6F93"/>
<path d="M73.914 27.2135L73.7329 27.4128V40.0047L73.7377 52.5967L73.9283 52.796L74.119 53H81.1404H88.1618L88.3811 52.8007L88.6051 52.6015V50.8887V49.1759L88.3954 49.0004L88.1809 48.8248H83.1043H78.023V45.4562V42.0876H82.7087H87.3944L87.6184 41.8599L87.8424 41.6321V39.9715V38.3109L87.6136 38.088L87.3848 37.865H82.7039H78.023V34.5201V31.1752H83.1138L88.1999 31.1704L88.4049 30.9807L88.6051 30.7909V29.0923V27.3985L88.3811 27.1993L88.1618 27L81.1261 27.0047L74.0904 27.0095L73.914 27.2135Z" fill="#6C6F93"/>
<path d="M92.695 27.2135L92.5139 27.4128V40.0047L92.5186 52.5967L92.7093 52.796L92.9 53H99.9452H106.995L107.191 52.8055L107.386 52.6109V50.8887V49.1664L107.186 48.9956L106.986 48.8248H101.895H96.8039V45.4562V42.0876H101.49H106.175L106.375 41.8836L106.576 41.6796V39.9715V38.2635L106.371 38.0642L106.166 37.865H101.485H96.8039V34.5201V31.1752H101.885H106.971L107.176 31.0044L107.386 30.8383V29.1113V27.3843L107.186 27.1945L106.981 27.0047H99.9261L92.8714 27.0095L92.695 27.2135Z" fill="#6C6F93"/>
<path d="M111.876 27.204L111.676 27.4033V29.1255V30.8431L111.872 31.0234L112.072 31.1989L116.471 31.2226L120.871 31.2464L120.68 31.5785C120.571 31.7588 120.342 32.1858 120.17 32.5274C119.77 33.3197 119.107 34.5675 118.612 35.469C118.173 36.2661 117.906 36.7737 117.892 36.8449C117.887 36.8734 117.763 37.1106 117.611 37.381L117.339 37.865H115.251H113.163L112.968 38.0832L112.772 38.3062V39.9953V41.6796L112.973 41.8836L113.173 42.0876H114.169H115.161L114.937 42.5004C114.813 42.7328 114.632 43.0555 114.536 43.2263C114.436 43.3971 114.174 43.8858 113.955 44.3175C113.731 44.7493 113.263 45.6223 112.915 46.2628C112.568 46.9033 112.081 47.8095 111.843 48.2792C111.605 48.7489 111.362 49.2091 111.304 49.2993C111.204 49.4606 111.199 49.508 111.199 51.031L111.204 52.5967L111.395 52.8007L111.586 53H118.831H126.076L126.291 52.8007L126.501 52.6062V50.8792V49.1569L126.305 48.9766L126.105 48.8011L121.205 48.7774L116.3 48.7536L116.753 47.9234C117.001 47.4679 117.387 46.742 117.606 46.3102C118.116 45.3044 118.96 43.7055 119.393 42.9179C119.579 42.5763 119.746 42.2536 119.761 42.192L119.789 42.0876H121.92H124.051L124.251 41.8836L124.451 41.6796V40V38.3157L124.256 38.0927L124.065 37.865L123.021 37.8555L121.982 37.8412L122.363 37.1296C122.573 36.7358 122.907 36.119 123.107 35.7536C123.307 35.3883 123.631 34.7668 123.831 34.3777C124.032 33.9839 124.451 33.1964 124.761 32.6223C125.071 32.0482 125.471 31.2985 125.652 30.9617L125.972 30.3449V28.8741V27.4033L125.781 27.1993L125.59 27H118.836L112.081 27.0047L111.876 27.204Z" fill="#6C6F93"/>
<path d="M129.656 27.2515C129.57 27.3891 129.504 27.5266 129.504 27.5551C129.504 27.5836 129.556 27.7212 129.618 27.8588C129.68 28.0011 129.818 28.319 129.923 28.5657C130.028 28.8124 130.238 29.2726 130.386 29.5858C130.533 29.8989 130.762 30.3876 130.896 30.677C131.029 30.9617 131.225 31.3887 131.339 31.6259C131.449 31.8584 131.592 32.181 131.663 32.3376C132.021 33.1631 132.388 33.965 133.365 36.0383C133.474 36.2708 133.641 36.6456 133.732 36.8686C133.827 37.0916 134.127 37.7511 134.399 38.3394C135.157 39.9526 135.681 41.1007 135.724 41.2288C135.743 41.2953 135.834 41.4945 135.92 41.6796L136.082 42.0117V47.3066L136.087 52.5967L136.277 52.796L136.468 53H138.227H139.99L140.157 52.8197L140.319 52.6442L140.324 47.3682V42.0971L140.558 41.6037C141.02 40.6263 141.673 39.2124 141.73 39.0511C141.797 38.8661 142.164 38.0547 142.35 37.6657C142.55 37.2624 143.642 34.8664 143.709 34.6861C143.747 34.596 143.961 34.1168 144.195 33.6281C144.424 33.1347 144.614 32.7266 144.614 32.7172C144.614 32.7077 144.81 32.2901 145.048 31.7825C145.286 31.2796 145.534 30.7339 145.596 30.5726C145.658 30.4113 145.868 29.9369 146.068 29.5146C146.263 29.0923 146.426 28.7412 146.426 28.7318C146.426 28.7223 146.554 28.4423 146.712 28.115L147.002 27.5219L146.878 27.3891C146.812 27.3179 146.731 27.204 146.697 27.1281L146.64 27H144.676C143.594 27 142.708 27.019 142.708 27.038C142.708 27.0617 142.655 27.1044 142.588 27.1328C142.464 27.1898 142.083 27.9204 141.778 28.6843C141.707 28.8646 141.54 29.2394 141.406 29.5146C141.278 29.7898 141.058 30.2595 140.92 30.5584C140.782 30.8573 140.553 31.3507 140.405 31.6496C140.038 32.423 139.795 32.9449 139.781 33.0018C139.766 33.0588 139.714 33.1774 139.237 34.2117C139.028 34.6672 138.718 35.3314 138.551 35.6825C138.379 36.0336 138.232 36.3562 138.217 36.3942C138.193 36.4606 137.865 35.8248 137.774 35.5354C137.755 35.4737 137.545 35.004 137.307 34.4964C136.482 32.7124 135.882 31.3839 135.748 31.0566C135.677 30.8715 135.481 30.435 135.319 30.0839C135.157 29.7328 134.857 29.0781 134.652 28.6369C134.447 28.1909 134.213 27.6832 134.132 27.5077C134.032 27.2989 133.942 27.1661 133.865 27.1328C133.799 27.1044 133.746 27.0617 133.746 27.038C133.746 27.019 132.859 27 131.777 27H129.809L129.656 27.2515Z" fill="#6C6F93"/>
</g>
<defs>
<clipPath id="clip0_145_993">
<rect width="94" height="26" fill="white" transform="translate(53 27)"/>
</clipPath>
</defs>
</svg>
